<svg xmlns="http://www.w3.org/2000/svg" viewBox="0 0 3641 1466"><g fill="#23506f" transform="translate(0,1466) scale(1,-1)"><path transform="translate(0,0)" d="M150 0V1466H773Q1008 1466 1114.5 1426.5Q1221 1387 1285.0 1286.0Q1349 1185 1349 1055Q1349 890 1252.0 782.5Q1155 675 962 647Q1058 591 1120.5 524.0Q1183 457 1289 286L1468 0H1114L900 319Q786 490 744.0 534.5Q702 579 655.0 595.5Q608 612 506 612H446V0ZM446 846H665Q878 846 931.0 864.0Q984 882 1014.0 926.0Q1044 970 1044 1036Q1044 1110 1004.5 1155.5Q965 1201 893 1213Q857 1218 677 1218H446Z"/><path transform="translate(1479,0)" d="M89 724Q89 948 156 1100Q206 1212 292.5 1301.0Q379 1390 482 1433Q619 1491 798 1491Q1122 1491 1316.5 1290.0Q1511 1089 1511 731Q1511 376 1318.0 175.5Q1125 -25 802 -25Q475 -25 282.0 174.5Q89 374 89 724ZM394 734Q394 485 509.0 356.5Q624 228 801 228Q978 228 1091.5 355.5Q1205 483 1205 738Q1205 990 1094.5 1114.0Q984 1238 801 1238Q618 1238 506.0 1112.5Q394 987 394 734Z"/><path transform="translate(3072,0)" d="M140 0V1466H436V0Z"/></g></svg>
